<?xml version="1.0" standalone="no"?>
<!DOCTYPE svg PUBLIC "-//W3C//DTD SVG 20010904//EN"
 "http://www.w3.org/TR/2001/REC-SVG-20010904/DTD/svg10.dtd">
<svg version="1.0" xmlns="http://www.w3.org/2000/svg"
 width="812.000000pt" height="812.000000pt" viewBox="0 0 812.000000 812.000000"
 preserveAspectRatio="xMidYMid meet">
<metadata>
Created by potrace 1.11, written by Peter Selinger 2001-2013
</metadata>
<g transform="translate(0.000000,812.000000) scale(0.100000,-0.100000)"
fill="#000000" stroke="none">
<path d="M1396 6563 c-1 -1 -31 -5 -67 -8 -35 -3 -71 -7 -79 -10 -8 -2 -35 -7
-60 -10 -51 -7 -205 -50 -259 -72 -207 -85 -378 -213 -512 -383 -33 -41 -64
-81 -70 -87 -5 -7 -7 -13 -5 -13 3 0 -5 -15 -17 -33 -33 -49 -120 -242 -132
-292 -3 -11 -16 -60 -29 -110 -13 -49 -27 -108 -30 -130 -4 -22 -9 -53 -11
-70 -28 -160 -22 -562 10 -711 2 -11 7 -45 11 -75 3 -30 8 -57 10 -60 2 -4 6
-22 9 -41 3 -19 19 -86 36 -149 16 -63 31 -121 33 -129 6 -25 56 -174 65 -195
5 -11 14 -36 21 -55 15 -44 23 -63 49 -122 12 -26 21 -50 21 -54 0 -14 162
-326 207 -399 27 -44 56 -91 64 -105 8 -14 16 -27 19 -30 3 -3 23 -31 45 -64
66 -97 121 -173 135 -186 3 -3 33 -39 67 -80 74 -92 160 -179 367 -375 88 -82
173 -163 191 -180 17 -16 75 -72 129 -123 54 -51 120 -104 147 -118 53 -26 97
-53 274 -169 127 -82 321 -197 440 -260 22 -11 72 -39 110 -62 266 -155 380
-172 575 -86 72 31 288 142 446 228 49 28 246 144 278 165 80 53 250 173 256
181 3 3 22 18 43 32 35 24 69 50 130 100 12 10 37 31 56 45 19 15 44 37 57 49
13 13 26 23 29 23 3 0 16 10 29 23 13 12 61 56 106 97 111 99 268 258 355 356
39 43 78 88 88 99 25 27 179 232 203 270 10 17 21 32 25 35 3 3 16 23 28 45
12 22 31 56 43 75 41 69 97 181 118 236 l21 56 -67 137 c-427 869 -453 921
-486 941 -24 14 -35 16 -45 8 -8 -6 -11 -13 -9 -16 3 -2 -1 -17 -9 -33 -8 -15
-17 -36 -18 -46 -2 -10 -10 -31 -17 -48 -6 -16 -23 -59 -35 -95 -13 -36 -33
-90 -45 -120 -12 -30 -23 -62 -25 -71 -2 -8 -11 -33 -20 -55 -9 -21 -18 -43
-19 -49 -2 -5 -6 -17 -9 -25 -3 -8 -16 -44 -28 -80 -12 -36 -27 -71 -32 -77
-5 -7 -7 -13 -4 -13 3 0 -8 -33 -24 -72 -16 -40 -30 -75 -31 -78 -1 -7 -4 -15
-33 -95 -14 -38 -27 -77 -30 -86 -2 -9 -12 -38 -23 -65 -11 -27 -55 -143 -97
-259 -41 -115 -89 -244 -104 -285 -16 -41 -35 -93 -41 -115 -7 -22 -16 -44
-20 -50 -5 -5 -9 -14 -10 -20 -4 -15 -7 -24 -30 -92 l-22 -62 -24 16 c-19 12
-74 107 -74 128 0 2 -5 16 -12 32 -6 15 -12 33 -13 38 -2 6 -22 66 -45 135
-23 68 -43 129 -45 135 -1 5 -5 17 -8 25 -3 8 -15 47 -28 85 -53 171 -74 223
-106 263 -19 23 -37 42 -41 42 -4 0 -25 -43 -47 -95 -22 -52 -43 -95 -47 -95
-5 0 -8 -5 -8 -11 0 -6 -13 -38 -28 -72 -16 -34 -44 -97 -62 -139 -27 -60 -39
-77 -55 -77 -11 0 -263 -3 -560 -7 -970 -12 -1027 -11 -1096 18 -38 16 -53 48
-65 141 -8 60 22 117 76 141 40 17 131 29 195 25 22 -1 314 -3 650 -3 l609 -1
41 91 c47 107 57 131 85 204 11 30 27 69 35 87 8 17 15 36 15 42 0 6 4 19 10
29 5 9 23 53 41 97 17 44 35 89 39 100 5 11 21 49 36 85 14 36 46 107 70 159
24 51 44 96 44 100 0 3 9 17 19 31 l19 24 41 -87 c23 -48 60 -126 82 -174 23
-49 63 -135 89 -193 26 -58 65 -141 86 -185 21 -44 38 -82 39 -85 5 -20 50
-110 55 -110 3 0 16 28 27 63 20 56 128 354 170 467 10 25 18 47 19 50 0 3 4
12 7 20 3 8 13 35 22 60 41 116 56 156 62 170 3 8 7 17 7 20 2 9 48 135 57
155 4 11 69 189 144 395 75 206 139 382 142 390 3 8 7 20 9 25 1 6 9 25 17 43
l14 34 32 -58 c18 -31 46 -80 61 -108 128 -234 245 -445 258 -466 9 -14 15
-27 15 -30 -1 -3 2 -9 7 -15 8 -10 24 -38 76 -133 31 -55 65 -116 96 -172 14
-25 40 -72 58 -105 18 -33 44 -80 58 -105 64 -114 88 -158 113 -203 l26 -49
20 29 c29 42 78 151 74 167 -1 4 3 13 8 20 13 15 58 240 67 331 13 137 9 335
-12 555 -5 52 -23 169 -40 265 -11 60 -13 70 -19 95 -3 14 -8 36 -11 50 -3 14
-10 43 -16 65 -5 22 -11 47 -13 55 -12 57 -24 84 -73 155 -85 123 -133 185
-145 185 -6 0 -8 3 -4 6 9 10 -116 143 -203 215 -128 107 -302 199 -421 223
-8 2 -21 6 -29 9 -14 5 -73 17 -115 22 -11 2 -45 6 -75 11 -105 15 -425 8
-555 -11 -374 -56 -625 -187 -816 -425 -57 -72 -136 -209 -195 -342 -81 -180
-108 -238 -114 -238 -3 0 -16 28 -29 63 -13 34 -44 105 -69 157 -25 52 -46 98
-46 102 -1 4 -7 13 -13 20 -7 6 -13 16 -13 20 0 12 -82 142 -92 146 -4 2 -8 8
-8 14 0 5 -6 15 -12 22 -7 7 -26 30 -43 51 -56 72 -176 185 -195 185 -6 0 -10
4 -10 8 0 4 -24 22 -54 40 -62 38 -196 104 -196 96 0 -2 -10 0 -21 7 -54 28
-265 74 -395 85 -71 6 -363 12 -368 7z"/>
<path d="M5739 3668 c-47 -44 -129 -189 -129 -227 0 -11 10 -46 22 -78 12 -32
23 -62 24 -68 5 -24 108 -264 160 -371 19 -39 34 -76 34 -82 0 -6 3 -12 8 -14
4 -1 18 -25 32 -53 35 -71 111 -202 152 -263 l35 -52 45 48 c58 60 138 172
230 320 40 64 75 119 78 122 3 3 18 30 34 60 17 30 36 61 43 68 10 11 61 15
201 17 103 2 347 7 542 10 195 4 456 8 579 10 159 2 226 6 231 15 4 6 6 24 4
38 -1 15 -5 69 -8 121 -4 52 -7 96 -9 97 -3 3 -94 15 -142 19 -291 25 -1140
25 -1518 0 -65 -5 -97 -19 -97 -43 0 -6 -4 -12 -8 -14 -4 -1 -45 -54 -91 -116
-46 -62 -85 -111 -86 -110 -2 2 -19 32 -38 68 -49 94 -173 330 -226 432 -25
49 -48 88 -51 88 -3 0 -26 -19 -51 -42z"/>
</g>
</svg>
